<svg xmlns="http://www.w3.org/2000/svg" viewBox="0 0 300 150">
    <path fill="rgba(26,13,71,0.3)" d="M183.7 106.6c1.8-0.3 3.4-1.5 4-3.9 4.4-19 12.1-36.7 20.4-54.3C218.7 32 229.9 15.8 241.6 0h-11.8H228h-3 -3.8 -1.5H218h-4.4 -1.8 -2 -1.3c0-0.1 0.1-0.2 0.1-0.3 -0.1 0.1-0.1 0.2-0.2 0.3h-3.8 -1.1 -1.9 -2.7 -1.3 -3.1 -1.7 -2.6 -3 -5.5c-8.7 14.9-17.4 29.8-26.1 44.6 2.6-15 6.5-30 10.7-44.6H162h-0.6 -6.4 -4.7 -0.5H149h-1.4 -5.5 -0.3 -3.6 -2.5H135h-4.8H130h-5.9 -0.2 -13.8c-24.7 31-47 63.8-67.8 97.6 -0.1-0.1-0.2-0.1-0.3-0.2 4.8-10.7 9.6-21.3 14.5-32 1.4-2.8 2.8-5.6 4.3-8.3 0.4-0.8 0.6-1.7 0.7-2.4 1.9-4.2 3.9-8.4 5.8-12.6 2 2.9 6.5 3.6 9.1-0.2C85.8 28 94.9 14 104 0H90.9c-1.7 2.6-3.4 5.2-5.1 7.9 1-2.6 2-5.3 3-7.9H87h-9.9 -1.8 -0.4H63.6c-7 18.1-13.9 36.3-20.6 54.5 -5.6 15.3-11.1 30.7-16.5 46.2 -2.1 4.4-4.3 8.7-6.4 13.1 -5.8 12-11.4 24.1-17 36.2h1.8 6.2 0.1 3.9 2.6 0.2 2.3 3.6 0.2 0.4 5.2 1.2H32h3.9 5.9 1.8c2.6-4.2 5.2-8.4 7.7-12.6 -1.9 4.2-3.9 8.4-5.9 12.6h12c8.7-18.6 16.9-37.5 21.2-57.7 1.3-6-6.7-9.7-10.1-4.2 -3.9 6.4-7.8 12.8-11.8 19.2 4.9-9.7 9.8-19.4 14.8-29.1 1.1-2.2 0.8-4.3-0.3-5.8 10.3-15.6 21-31 32.2-46 6.5-8.7 13.3-17.4 20.2-25.8C103.2 50.2 82.9 99.9 63.6 150h11.3 0.4 1.8H87h1.8c6.7-17 15.1-33.4 23-49.7 11.7-24.2 23.8-48.2 36-72.2 -2.9 13.1-5.1 26.3-5.8 39.6 -16.6 27.7-33.5 55.2-51 82.3H104c14.7-22.9 29-46 43-69.4 1.9 0 3.8-0.8 4.9-2.5 5.8-8.7 11.5-17.5 17.3-26.2 -8 21.5-16.6 42.8-25.2 64.1 -2-0.8-4.4-0.7-6 1.1 -9.6 10.7-18.9 21.7-27.9 32.9h13.8c-0.1 0.2-0.1 0.3-0.2 0.5 0.1-0.2 0.3-0.3 0.4-0.5h5.9 0.2 4.8 0.7 2.5 3.6 0.3 5.5 1.4 0.6 0.5 4.7 6.4 0.6 4.3c1.8-6.5 3.7-13 5.6-19.4 3.8-7.4 7.5-14.8 11.3-22.2C183.4 107.8 183.6 107.2 183.7 106.6zM83.6 128.7c0.2 0.4 0.5 0.8 0.9 1.1 -2.4 5.1-4.9 10.2-7.3 15.3C79.3 139.6 81.5 134.1 83.6 128.7zM198.7 42.8c1-3 1.9-6 2.9-9 0.2-0.7 0.3-1.3 0.2-1.9 3-4.9 6-9.7 8.9-14.6 -3.8 8.4-7.8 16.8-11.8 25.2C198.8 42.6 198.7 42.7 198.7 42.8zM159.6 128.7c0.9-1.6 1.8-3.1 2.7-4.7 -0.1 0.3-0.2 0.6-0.2 0.8 -1.6 3-3.2 6-4.7 9C158.1 132.2 158.8 130.5 159.6 128.7z"/>
    <path fill="rgba(26,13,71,0.3)" d="M296.8 13.8c-0.2 0.3-0.3 0.6-0.5 0.9 0.8-4.9 1.8-9.8 2.9-14.7H288c-2.7 12.5-4.7 25.1-5.4 37.7 -15.7 26.2-31.7 52.3-48.2 78 -1-0.4-2-0.5-3.1-0.2 6.4-15.4 13.9-30.3 21.1-45.1 11.4-23.6 23.2-47 35-70.3h-0.8 -9 -2.5 -0.8 -4 -4.7 -1.6 -5.5 -6.3c-17.4 42.3-34.5 84.7-50.9 127.4 -2.4-1.4-5.8-1.2-7.5 1.8 -4 6.9-8.1 13.8-12.1 20.8h5.5 3 2.6 1.7 3.1 1.3 2.7 1.9 1.1 3.8 0.1 1.3 2 1.8 4.4 1.8 1.5 3.8 3 1.7 11.8c0.9-1.2 1.8-2.4 2.7-3.7 6.5-8.7 13.3-17.4 20.2-25.8 -4.1 9.8-8.1 19.6-12.1 29.5h6.3 5.5 1.6 4.7 4 0.8 2.5 9 0.8c0.3-0.6 0.6-1.3 1-1.9 -0.1 0.6-0.3 1.3-0.4 1.9h11.2c0.3-1.2 0.5-2.3 0.8-3.5v-21.2 -1.3 -19.5V101v-0.9c-0.7 1.3-1.4 2.6-2 3.9 0.7-1.5 1.4-3.1 2-4.6V77.2v-4.9V47.6c-5 12.8-10.2 25.6-15.4 38.4 -2-0.8-4.4-0.7-6 1.1 -16.8 18.6-32.4 38.1-47.2 58.3 1.2-3.3 2.2-6.6 3.2-9.9 13-19.8 25.6-39.8 37.9-60 2.2 2.7 7.4 3.3 9.4-0.4 6-10.9 12-21.8 18-32.7v-5.6 -3.6V30 19.9v-3V8.4 6.7C298.9 9 297.9 11.4 296.8 13.8zM224.3 98.7c0.2 0.4 0.5 0.8 0.9 1.1 0 0.1-0.1 0.2-0.1 0.3 -0.5 0.1-1 0.3-1.5 0.6C223.8 100 224 99.3 224.3 98.7z"/>
    <path fill="rgba(26,13,71,0.3)" d="M20.1 85.7c1.2-2.4 2.5-4.9 3.7-7.3 0.3-0.6 0.5-1.2 0.6-1.7 1.8-0.3 3.4-1.5 4-3.9 6-25.7 18-49.1 29.1-72.8h-12c-2.1 4.4-4.2 8.8-6.3 13.2 1-3.1 2-6.2 3-9.4 0.2-0.7 0.3-1.3 0.2-1.9 0.4-0.6 0.8-1.3 1.2-1.9h-1.8 -5.9H32h-1.3 -1.2 -5.2 -0.4 -0.2 -3.6 -2.3 -0.2 -2.6 -3.9 -0.1H4.9 3.1C2.1 2.2 1 4.4 0 6.7v1.7 8.5 3V30v3.3 3.6 5.6c2.2-3.9 4.4-7.8 6.5-11.8C4.4 36.3 2.2 42 0 47.6v24.7 4.9 22.1c1.4-3.1 2.7-6.1 4.1-9.2 -0.5 1.6-0.9 3.2-1.4 4.7 -0.9 1.7-1.8 3.4-2.7 5.1v0.9 3.4 19.5 1.3 21.2c3.6-15.5 8.2-30.9 12.5-45.9C15 95.6 17.6 90.7 20.1 85.7z"/>
</svg>